<svg width="416" height="122" viewBox="0 0 416 122" fill="none" xmlns="http://www.w3.org/2000/svg">
<path d="M10.7292 94.0207V45.8748H0V30.0415H10.7292V21.6873C10.7292 15.8696 12.3854 11.3019 15.7083 7.979C19.0417 4.64567 23.6146 2.979 29.4375 2.979H48.875V18.8123H33.6667C32.6667 18.8123 31.8125 19.1665 31.1042 19.8748C30.3958 20.5832 30.0417 21.4373 30.0417 22.4373V30.0415H46.1458V45.8748H30.0417V94.0207H10.7292Z" fill="#E92077"/>
<path d="M58.3516 94.0207V2.979H77.6849V94.0207H58.3516Z" fill="#E92077"/>
<path d="M92.0195 94.0208V30.0417H111.478V94.0208H92.0195ZM101.749 22.8125C98.6654 22.8125 95.9987 21.6979 93.7487 19.4583C91.5091 17.2083 90.3945 14.5417 90.3945 11.4583C90.3945 8.39063 91.5091 5.71875 93.7487 3.4375C95.9987 1.14583 98.6654 0 101.749 0C104.816 0 107.467 1.14583 109.707 3.4375C111.957 5.71875 113.082 8.39063 113.082 11.4583C113.082 14.5417 111.957 17.2083 109.707 19.4583C107.467 21.6979 104.816 22.8125 101.749 22.8125Z" fill="#E92077"/>
<path d="M159.479 28.5415C164.88 28.5415 169.677 29.3957 173.875 31.104C178.083 32.8123 181.656 35.229 184.604 38.354C187.562 41.4686 189.833 45.1196 191.417 49.3123C193 53.5103 193.792 58.1405 193.792 63.2082C193.792 69.5311 192.479 75.1248 189.854 79.9998C187.229 84.8644 183.63 88.6665 179.062 91.4165C174.49 94.1509 169.172 95.5207 163.104 95.5207C160.521 95.5207 158.083 95.1873 155.792 94.5207C153.51 93.854 151.438 92.8957 149.562 91.6457C147.698 90.3957 146.146 88.8644 144.896 87.0415H144.521V121.083H125.188V63.2082C125.188 56.1561 126.594 50.0519 129.417 44.8957C132.25 39.729 136.24 35.7186 141.396 32.854C146.562 29.979 152.589 28.5415 159.479 28.5415ZM159.479 45.2498C156.49 45.2498 153.896 45.979 151.688 47.4373C149.49 48.8957 147.812 50.8957 146.646 53.4373C145.479 55.9686 144.896 58.8123 144.896 61.979C144.896 65.1353 145.479 67.9582 146.646 70.4582C147.812 72.9478 149.49 74.9165 151.688 76.3748C153.896 77.8332 156.49 78.5623 159.479 78.5623C162.479 78.5623 165.052 77.8332 167.208 76.3748C169.375 74.9165 171.062 72.9478 172.271 70.4582C173.479 67.9582 174.083 65.1353 174.083 61.979C174.083 58.8123 173.479 55.9686 172.271 53.4373C171.062 50.8957 169.375 48.8957 167.208 47.4373C165.052 45.979 162.479 45.2498 159.479 45.2498Z" fill="#E92077"/>
<path d="M199.041 94.0207V57.229C199.041 51.9113 200.322 47.0936 202.895 42.7707C205.479 38.4373 209.156 34.9894 213.937 32.4165C218.729 29.8332 224.406 28.5415 230.979 28.5415C237.614 28.5415 243.281 29.8332 247.979 32.4165C252.687 34.9894 256.281 38.4373 258.77 42.7707C261.27 47.0936 262.52 51.9113 262.52 57.229V94.0207H243.187V57.729C243.187 55.479 242.645 53.4269 241.562 51.5623C240.489 49.6873 239.02 48.1873 237.145 47.0623C235.27 45.9373 233.171 45.3748 230.854 45.3748C228.437 45.3748 226.291 45.9373 224.416 47.0623C222.551 48.1873 221.083 49.6873 219.999 51.5623C218.916 53.4269 218.374 55.479 218.374 57.729V94.0207H199.041Z" fill="#303030"/>
<path d="M310.393 94.0207C303.169 94.0207 296.815 92.6769 291.33 89.979C285.841 87.2707 281.58 83.5311 278.539 78.7498C275.507 73.9738 273.997 68.4269 273.997 62.104C273.997 55.1196 275.445 49.1353 278.351 44.1457C281.268 39.1457 285.153 35.3019 290.018 32.604C294.877 29.8957 300.257 28.5415 306.164 28.5415C312.898 28.5415 318.528 29.9582 323.06 32.7915C327.586 35.6144 331.007 39.4582 333.33 44.3332C335.664 49.1978 336.83 54.7446 336.83 60.979C336.83 62.0623 336.768 63.3332 336.643 64.7915C336.528 66.2394 336.393 67.3748 336.226 68.2082H294.31C294.81 70.3748 295.768 72.2082 297.185 73.7082C298.601 75.1978 300.382 76.2915 302.539 76.9998C304.705 77.7082 307.122 78.0623 309.789 78.0623H329.351V94.0207H310.393ZM293.81 56.104H318.143C317.976 54.7707 317.726 53.4894 317.393 52.2498C317.06 50.9998 316.539 49.8957 315.83 48.9373C315.122 47.979 314.31 47.1457 313.393 46.4373C312.476 45.729 311.414 45.1769 310.205 44.7707C309.007 44.354 307.664 44.1457 306.164 44.1457C304.247 44.1457 302.539 44.479 301.039 45.1457C299.549 45.8019 298.31 46.6873 297.31 47.8123C296.31 48.9373 295.539 50.229 294.997 51.6873C294.455 53.1457 294.06 54.6196 293.81 56.104Z" fill="#303030"/>
<path d="M371.512 94.021C365.605 94.021 360.991 92.3439 357.658 88.9793C354.335 85.6043 352.678 81.0522 352.678 75.3127V14.4585H372.116V74.1877C372.116 75.1877 372.47 76.0418 373.178 76.7502C373.887 77.4585 374.741 77.8127 375.741 77.8127H389.72V94.021H371.512ZM342.199 45.8752V30.0418H389.72V45.8752H342.199Z" fill="#303030"/>
<path d="M406.933 21.5459L408.146 30.5407" stroke="#303030" stroke-width="3.31758"/>
<mask id="mask0_1177_155" style="mask-type:luminance" maskUnits="userSpaceOnUse" x="401" y="29" width="15" height="13">
<path d="M401.958 29.5195H415.291V41.5195H401.958V29.5195Z" fill="white"/>
</mask>
<g mask="url(#mask0_1177_155)">
<mask id="mask1_1177_155" style="mask-type:luminance" maskUnits="userSpaceOnUse" x="401" y="28" width="15" height="15">
<path d="M413.343 28.978L415.343 40.3947L403.927 42.3947L401.927 30.978L413.343 28.978Z" fill="white"/>
</mask>
<g mask="url(#mask1_1177_155)">
<mask id="mask2_1177_155" style="mask-type:luminance" maskUnits="userSpaceOnUse" x="401" y="28" width="15" height="15">
<path d="M413.343 28.978L415.343 40.3947L403.927 42.3947L401.927 30.978L413.343 28.978Z" fill="white"/>
</mask>
<g mask="url(#mask2_1177_155)">
<mask id="mask3_1177_155" style="mask-type:luminance" maskUnits="userSpaceOnUse" x="402" y="29" width="13" height="13">
<path d="M414.343 34.6863C413.791 31.5352 410.786 29.4258 407.635 29.9779C404.479 30.53 402.375 33.5352 402.927 36.6863C403.479 39.8373 406.479 41.9467 409.635 41.3946C412.786 40.8425 414.896 37.8373 414.343 34.6863Z" fill="white"/>
</mask>
<g mask="url(#mask3_1177_155)">
<path d="M414.343 34.6864C413.791 31.5353 410.786 29.4259 407.635 29.978C404.479 30.5301 402.375 33.5353 402.927 36.6864C403.479 39.8374 406.479 41.9468 409.635 41.3947C412.786 40.8426 414.896 37.8374 414.343 34.6864Z" stroke="#303030" stroke-width="5.99881"/>
</g>
</g>
</g>
</g>
<path d="M390.942 14.5143L402.187 16.1914" stroke="#303030" stroke-width="3.31717"/>
<mask id="mask4_1177_155" style="mask-type:luminance" maskUnits="userSpaceOnUse" x="400" y="10" width="14" height="15">
<path d="M400.625 10.853H413.958V24.1864H400.625V10.853Z" fill="white"/>
</mask>
<g mask="url(#mask4_1177_155)">
<mask id="mask5_1177_155" style="mask-type:luminance" maskUnits="userSpaceOnUse" x="399" y="10" width="15" height="15">
<path d="M411.765 10.4521L413.833 22.2334L402.052 24.2959L399.989 12.5146L411.765 10.4521Z" fill="white"/>
</mask>
<g mask="url(#mask5_1177_155)">
<mask id="mask6_1177_155" style="mask-type:luminance" maskUnits="userSpaceOnUse" x="399" y="10" width="15" height="15">
<path d="M411.765 10.4521L413.833 22.2334L402.052 24.2959L399.989 12.5146L411.765 10.4521Z" fill="white"/>
</mask>
<g mask="url(#mask6_1177_155)">
<mask id="mask7_1177_155" style="mask-type:luminance" maskUnits="userSpaceOnUse" x="400" y="11" width="13" height="13">
<path d="M412.801 16.3426C412.229 13.0874 409.13 10.9155 405.88 11.4832C402.624 12.0562 400.447 15.1551 401.02 18.4051C401.588 21.6603 404.687 23.8322 407.942 23.2645C411.197 22.6916 413.369 19.5926 412.801 16.3426Z" fill="white"/>
</mask>
<g mask="url(#mask7_1177_155)">
<path d="M412.801 16.3428C412.228 13.0876 409.129 10.9158 405.879 11.4835C402.624 12.0564 400.447 15.1553 401.02 18.4053C401.588 21.6605 404.687 23.8324 407.942 23.2647C411.197 22.6918 413.369 19.5928 412.801 16.3428Z" stroke="#303030" stroke-width="5.98499"/>
</g>
</g>
</g>
</g>
<mask id="mask8_1177_155" style="mask-type:luminance" maskUnits="userSpaceOnUse" x="380" y="6" width="14" height="15">
<path d="M380.625 6.85303H393.958V20.1864H380.625V6.85303Z" fill="white"/>
</mask>
<g mask="url(#mask8_1177_155)">
<mask id="mask9_1177_155" style="mask-type:luminance" maskUnits="userSpaceOnUse" x="380" y="7" width="14" height="14">
<path d="M391.718 7.06152L393.718 18.4782L382.302 20.4782L380.302 9.06152L391.718 7.06152Z" fill="white"/>
</mask>
<g mask="url(#mask9_1177_155)">
<mask id="mask10_1177_155" style="mask-type:luminance" maskUnits="userSpaceOnUse" x="380" y="7" width="14" height="14">
<path d="M391.718 7.06152L393.718 18.4782L382.302 20.4782L380.302 9.06152L391.718 7.06152Z" fill="white"/>
</mask>
<g mask="url(#mask10_1177_155)">
<mask id="mask11_1177_155" style="mask-type:luminance" maskUnits="userSpaceOnUse" x="381" y="7" width="12" height="13">
<path d="M392.718 12.7698C392.166 9.61872 389.161 7.50934 386.01 8.06142C382.859 8.61351 380.75 11.6187 381.302 14.7698C381.854 17.926 384.859 20.0302 388.01 19.4781C391.161 18.926 393.27 15.9208 392.718 12.7698Z" fill="white"/>
</mask>
<g mask="url(#mask11_1177_155)">
<path d="M392.718 12.7698C392.166 9.6188 389.161 7.50943 386.01 8.06151C382.859 8.6136 380.75 11.6188 381.302 14.7698C381.854 17.9261 384.859 20.0303 388.01 19.4782C391.161 18.9261 393.271 15.9209 392.718 12.7698Z" stroke="#303030" stroke-width="5.99046"/>
</g>
</g>
</g>
</g>
</svg>
